<svg xmlns="http://www.w3.org/2000/svg" xml:space="preserve" width="800" height="800" viewBox="0 0 512 512">
  <path d="M360.279 368.47c0 40.935-15.94 79.42-44.886 108.364a8.233 8.233 0 0 0 11.642 11.643c32.055-32.055 49.708-74.675 49.708-120.007v-21.953h-16.465v21.953h.001z" style="fill:#c8db86"/>
  <path d="M461.499 476.834c-28.946-28.944-44.886-67.429-44.886-108.364v-21.953h-16.465v21.953c0 45.334 17.654 87.952 49.709 120.007a8.208 8.208 0 0 0 5.821 2.41 8.233 8.233 0 0 0 5.821-14.053z" style="fill:#bcc987"/>
  <path d="M380.213 503.767a8.232 8.232 0 0 0 8.233 8.233 8.232 8.232 0 0 0 8.233-8.233V346.516h-16.465v157.251z" style="fill:#c8db86"/>
  <path d="m168.183 0 25.367 184.541 42.974-91.721c2.097-6.718 3.216-13.853 3.216-21.262C239.74 32.041 207.699 0 168.183 0z" style="fill:#7d9062"/>
  <path d="m226.48 107.704-58.297 86.398L99.831 92.819a71.556 71.556 0 0 1-3.205-21.262C96.626 32.041 128.656 0 168.183 0c28.682 0 51.942 32.041 51.942 71.557 0 7.409-.812 14.544-2.338 21.262 3.238 4.544 6.158 9.528 8.693 14.885z" style="fill:#9cac74"/>
  <path d="m236.524 92.819-11.646 11.646-.077 146.737 38.111-76.661a96.707 96.707 0 0 0 1.098-14.577c0-26.158-10.494-49.857-27.486-67.145z" style="fill:#9cac74"/>
  <path d="M246.754 196.319 168.293 302.09l-.11-140.919 56.695-56.706c8.101 15.664 12.865 34.807 12.865 55.498 0 4.961-.274 9.824-.801 14.577 3.808 6.718 7.101 14.018 9.812 21.779z" style="fill:#bcc987"/>
  <path d="M168.186 161.169v140.809l-94.729-127.44a96.707 96.707 0 0 1-1.098-14.577c0-26.158 10.483-49.856 27.475-67.145l68.352 68.353z" style="fill:#c8db86"/>
  <path d="m447.617 325.01-4.205-41.574-11.957-8.236 10.292-8.231-8.41-83.156-11.792-8.239 10.126-8.235-8.41-83.152-11.674-8.239 10.007-8.236-3.373-33.349-2.915-16.464C410.919 7.388 400.544 0 388.442 0l8.88 368.466h11.054c21.789 0 39.439-17.651 39.439-39.439 0-1.35-.066-2.689-.198-4.017z" style="fill:#e86f22"/>
  <path d="M414.797 325.01c.066 1.328.088 2.667.088 4.017 0 21.789-7.859 39.439-17.563 39.439h-28.814c-21.778 0-39.439-17.651-39.439-39.439 0-1.35.066-2.689.209-4.017l30.219-298.874C360.989 11.46 373.382 0 388.442 0c6.718 0 12.228 11.46 12.898 26.136l13.457 298.874z" style="fill:#fd830c"/>
  <path d="M441.747 266.967h-13.036a8.232 8.232 0 0 0-8.233 8.233 8.232 8.232 0 0 0 8.233 8.233h14.701l-1.665-16.466zM395.781 283.432h-28.539a8.232 8.232 0 0 1-8.233-8.233 8.232 8.232 0 0 1 8.233-8.233h28.539a8.234 8.234 0 0 1 0 16.466zM394.536 117.527h-44.278l-1.665 16.465h45.943a8.232 8.232 0 0 0 8.233-8.233 8.231 8.231 0 0 0-8.233-8.232zM389.195 217.153h-49.013l-1.665 16.465h50.678a8.232 8.232 0 1 0 0-16.465z" style="fill:#fec45e"/>
  <path d="m431.668 167.34 1.669 16.465h-24.896l-7.716-8.232 6.97-8.233zM421.592 67.715l1.668 16.465h-19.308l-9.429-8.232 8.694-8.233zM414.687 316.777a8.236 8.236 0 0 1 8.233 8.233 8.23 8.23 0 0 1-8.134 8.233l-10.966-8.233 10.604-8.233h.263zM417.387 26.136l.834 8.233h-16.509l-8.737-8.233 7.431-8.233h14.895a28.492 28.492 0 0 1 2.086 8.233z" style="fill:#ffad61"/>
  <path d="M414.797 325.01c.066 1.328.088 2.667.088 4.017 0 1.427-.033 2.832-.099 4.215H362.207a8.222 8.222 0 0 1-8.233-8.233 8.23 8.23 0 0 1 8.233-8.233h52.216l.374 8.234zM407.695 167.34l.746 16.465h-19.242c-4.555 0-8.233-3.688-8.233-8.233s3.677-8.233 8.233-8.233h18.496zM403.217 67.715l.735 16.465h-16.564a8.236 8.236 0 0 1-8.233-8.233 8.236 8.236 0 0 1 8.233-8.233l15.829.001zM401.34 26.136l.373 8.233h-9.286a8.236 8.236 0 0 1-8.233-8.233 8.23 8.23 0 0 1 8.233-8.233h7.98a59.89 59.89 0 0 1 .933 8.233z" style="fill:#fec45e"/>
  <path d="M168.186 269.048v99.427c-66.332 0-120.096-53.775-120.096-120.107 0-27.837 9.473-53.457 25.367-73.829l94.729 94.509z" style="fill:#d4ed85"/>
  <path d="m262.912 174.541-17.673 17.673-77.057 176.264c66.332 0 120.096-53.775 120.096-120.107.001-27.838-9.472-53.457-25.366-73.83z" style="fill:#bcc987"/>
  <path d="M245.24 192.213c6.454 16.761 10.11 35.872 10.11 56.157 0 66.332-39.022 120.107-87.166 120.107V269.05l.11.11 76.946-76.947z" style="fill:#c8db86"/>
  <path d="M168.184 507.673a8.232 8.232 0 0 1-8.233-8.233V71.559c0-4.548 3.686-8.233 8.233-8.233s8.233 3.685 8.233 8.233V499.44a8.232 8.232 0 0 1-8.233 8.233z" style="fill:#7d9062"/>
</svg>
